<?xml version="1.0" encoding="UTF-8"?>
<!-- Generated by jsxcad -->
<!DOCTYPE svg PUBLIC "-//W3C//DTD SVG 1.1 Tiny//EN" "http://www.w3.org/Graphics/SVG/1.1/DTD/svg11-tiny.dtd">
<svg baseProfile="tiny" height="256.68750mm" width="194.25058mm" viewBox="-0.00058 34.68750 194.25058 256.68750" version="1.1" stroke="black" stroke-width=".1" fill="none" xmlns="http://www.w3.org/2000/svg">
<path fill="#000000" stroke="#000000" d="M-0.00058 145.68750 L0.10561 145.68750 L0.42566 145.68750 L0.74208 145.68750 L0.94737 145.68750 L0.94737 153.68750 L1.18239 153.68750 L1.41650 153.68750 L1.82140 153.68750 L2.22786 153.68750 L2.69737 153.68750 L3.16688 153.68750 L3.57334 153.68750 L3.97824 153.68750 L4.21235 153.68750 L4.44737 153.68750 L4.44737 145.68750 L4.97740 145.68750 L6.01477 145.68750 L7.05449 145.68750 L7.48642 145.68750 L7.64284 145.68750 L7.90367 145.68750 L8.26091 145.68750 L8.71490 145.68750 L9.26588 145.68750 L9.40588 145.68750 L9.89726 145.68750 L10.61404 145.68750 L10.69291 145.68750 L11.41021 145.68750 L11.97707 145.68750 L12.26462 145.68750 L13.18780 145.68750 L14.17064 145.68750 L14.70250 145.68750 L15.18163 145.68750 L15.55550 145.68750 L16.23079 145.68750 L17.31193 145.68750 L17.75867 145.68750 L18.21204 145.68750 L18.39975 145.68750 L18.65323 145.68750 L18.94737 145.68750 L19.38183 145.68750 L19.49499 145.68750 L19.82334 145.68750 L20.13606 145.68750 L20.46235 145.68750 L20.58281 145.68750 L21.66394 145.68750 L22.33924 145.68750 L22.71311 145.68750 L23.65169 145.68750 L23.72409 145.68750 L24.70694 145.68750 L25.63012 145.68750 L25.91767 145.68750 L26.48453 145.68750 L27.28070 145.68750 L27.29840 145.68750 L27.99747 145.68750 L28.48885 145.68750 L28.62886 145.68750 L29.17983 145.68750 L29.63383 145.68750 L29.66855 145.68750 L29.99106 145.68750 L30.25190 145.68750 L30.40832 145.68750 L30.84025 145.68750 L31.87997 145.68750 L32.91734 145.68750 L33.44737 145.68750 L33.44737 153.68750 L33.68239 153.68750 L33.91650 153.68750 L34.32140 153.68750 L34.72786 153.68750 L35.19737 153.68750 L35.66688 153.68750 L36.07334 153.68750 L36.47824 153.68750 L36.71235 153.68750 L36.94737 153.68750 L36.94737 145.68750 L37.15266 145.68750 L37.46907 145.68750 L37.78913 145.68750 L37.89531 145.68750 L37.89531 201.18750 L37.89531 256.68750 L37.78913 256.68750 L37.46907 256.68750 L37.15266 256.68750 L36.63425 256.68750 L36.11173 256.68750 L35.39576 256.68750 L34.68538 256.68750 L33.80038 256.68750 L32.91734 256.68750 L31.87997 256.68750 L30.84025 256.68750 L29.66855 256.68750 L28.48885 256.68750 L27.20183 256.68750 L25.91767 256.68750 L24.55544 256.68750 L23.19224 256.68750 L21.78143 256.68750 L20.37237 256.68750 L18.94737 256.68750 L17.52237 256.68750 L16.11331 256.68750 L14.70250 256.68750 L13.33929 256.68750 L11.97707 256.68750 L10.69291 256.68750 L9.40588 256.68750 L8.22619 256.68750 L7.05449 256.68750 L6.01477 256.68750 L4.97740 256.68750 L4.09436 256.68750 L3.20935 256.68750 L2.49898 256.68750 L1.78300 256.68750 L1.26049 256.68750 L0.74208 256.68750 L0.42566 256.68750 L0.10561 256.68750 L-0.00058 256.68750 L-0.00058 201.18750 z"/>
<path fill="#000000" stroke="#000000" d="M0.94737 137.68750 L1.18239 137.68750 L1.41650 137.68750 L1.82140 137.68750 L2.22786 137.68750 L2.69737 137.68750 L3.16688 137.68750 L3.57334 137.68750 L3.97824 137.68750 L4.21235 137.68750 L4.44737 137.68750 L4.44737 153.68750 L4.21235 153.68750 L3.97824 153.68750 L3.57334 153.68750 L3.16688 153.68750 L2.69737 153.68750 L2.22786 153.68750 L1.82140 153.68750 L1.41650 153.68750 L1.18239 153.68750 L0.94737 153.68750 z"/>
<path fill="#000000" stroke="#000000" d="M33.44737 137.68750 L33.68239 137.68750 L33.91650 137.68750 L34.32140 137.68750 L34.72786 137.68750 L35.19737 137.68750 L35.66688 137.68750 L36.07334 137.68750 L36.47824 137.68750 L36.71235 137.68750 L36.94737 137.68750 L36.94737 153.68750 L36.71235 153.68750 L36.47824 153.68750 L36.07334 153.68750 L35.66688 153.68750 L35.19737 153.68750 L34.72786 153.68750 L34.32140 153.68750 L33.91650 153.68750 L33.68239 153.68750 L33.44737 153.68750 z"/>
<path fill="#000000" stroke="#000000" d="M14.98882 122.68750 L15.15133 122.68750 L15.41601 122.68750 L15.77903 122.68750 L16.22798 122.68750 L16.74917 122.68750 L17.33400 122.68750 L17.96107 122.68750 L18.61404 122.68750 L19.28070 122.68750 L19.93367 122.68750 L20.56073 122.68750 L21.14557 122.68750 L21.66676 122.68750 L22.11571 122.68750 L22.47873 122.68750 L22.74340 122.68750 L22.90592 122.68750 L22.90592 127.99190 L22.90592 143.68750 L22.74340 143.68750 L22.71311 143.68750 L22.20546 143.68750 L21.66676 143.68750 L21.66394 143.68750 L20.60813 143.68750 L20.58281 143.68750 L19.49499 143.68750 L19.28070 143.68750 L18.61404 143.68750 L18.39975 143.68750 L17.93244 143.68750 L17.31193 143.68750 L16.74917 143.68750 L16.23079 143.68750 L16.22798 143.68750 L15.77903 143.68750 L15.18163 143.68750 L15.04525 143.68750 L14.98882 143.68750 L14.98882 138.38310 z"/>
<path fill="#000000" stroke="#000000" d="M7.48642 143.68750 L7.64284 143.68750 L7.90367 143.68750 L8.26091 143.68750 L8.71490 143.68750 L9.26588 143.68750 L9.89726 143.68750 L10.61404 143.68750 L11.41021 143.68750 L12.26462 143.68750 L13.18780 143.68750 L14.17064 143.68750 L15.18163 143.68750 L16.23079 143.68750 L17.31193 143.68750 L18.39975 143.68750 L19.49499 143.68750 L20.58281 143.68750 L21.66394 143.68750 L22.71311 143.68750 L23.72409 143.68750 L24.70694 143.68750 L25.63012 143.68750 L26.48453 143.68750 L27.28070 143.68750 L27.99747 143.68750 L28.62886 143.68750 L29.17983 143.68750 L29.63383 143.68750 L29.99106 143.68750 L30.25190 143.68750 L30.40832 143.68750 L30.40832 145.18580 L30.40832 145.68750 L30.25190 145.68750 L29.99106 145.68750 L29.63383 145.68750 L29.17983 145.68750 L28.62886 145.68750 L27.99747 145.68750 L27.28070 145.68750 L26.48453 145.68750 L25.63012 145.68750 L24.70694 145.68750 L23.72409 145.68750 L22.71311 145.68750 L21.66394 145.68750 L20.58281 145.68750 L19.49499 145.68750 L18.39975 145.68750 L17.31193 145.68750 L16.23079 145.68750 L15.18163 145.68750 L14.17064 145.68750 L13.18780 145.68750 L12.26462 145.68750 L11.41021 145.68750 L10.61404 145.68750 L9.89726 145.68750 L9.26588 145.68750 L8.71490 145.68750 L8.26091 145.68750 L7.90367 145.68750 L7.64284 145.68750 L7.48642 145.68750 L7.48642 144.18920 z"/>
<path stroke="#000000" d="M 0.00000 34.68750 L 37.87500 34.68750 L 37.87500 256.68750 L 0.00000 256.68750 z"/>
<path stroke="#000000" d="M 4.95536 291.37500 L 15.85714 291.37500 L 9.91071 283.44643 L 12.88393 283.44643 L 14.86607 282.45536 L 15.85714 281.46429 L 16.84821 278.49107 L 16.84821 276.50893 L 15.85714 273.53571 L 13.87500 271.55357 L 10.90179 270.56250 L 7.92857 270.56250 L 4.95536 271.55357 L 3.96429 272.54464 L 2.97321 274.52679"/>
<path stroke="#000000" d="M 36.66964 291.37500 L 26.75893 270.56250 M 22.79464 291.37500 z"/>
<path stroke="#000000" d="M 44.59821 272.54464 L 43.60714 271.55357 L 44.59821 270.56250 L 45.58929 271.55357 z"/>
<path stroke="#000000" d="M 57.48214 291.37500 L 54.50893 290.38393 L 53.51786 288.40179 L 53.51786 286.41964 L 54.50893 284.43750 L 56.49107 283.44643 L 60.45536 282.45536 L 63.42857 281.46429 L 65.41071 279.48214 L 66.40179 277.50000 L 66.40179 274.52679 L 65.41071 272.54464 L 64.41964 271.55357 L 61.44643 270.56250 L 57.48214 270.56250 L 54.50893 271.55357 L 53.51786 272.54464 L 52.52679 274.52679 L 52.52679 277.50000 L 53.51786 279.48214 L 55.50000 281.46429 L 58.47321 282.45536 L 62.43750 283.44643 L 64.41964 284.43750 L 65.41071 286.41964 L 65.41071 288.40179 L 64.41964 290.38393 L 61.44643 291.37500 z"/>
<path stroke="#000000" d="M 85.23214 284.43750 L 84.24107 281.46429 L 82.25893 279.48214 L 79.28571 278.49107 L 78.29464 278.49107 L 75.32143 279.48214 L 73.33929 281.46429 L 72.34821 284.43750 L 72.34821 285.42857 L 73.33929 288.40179 L 75.32143 290.38393 L 78.29464 291.37500 L 79.28571 291.37500 L 82.25893 290.38393 L 84.24107 288.40179 L 85.23214 284.43750 L 85.23214 279.48214 L 84.24107 274.52679 L 82.25893 271.55357 L 79.28571 270.56250 L 77.30357 270.56250 L 74.33036 271.55357 L 73.33929 273.53571"/>
<path stroke="#000000" d=""/>
<path stroke="#000000" d="M 108.02679 284.43750 L 118.92857 270.56250 M 118.92857 284.43750 L 108.02679 270.56250"/>
<path stroke="#000000" d=""/>
<path stroke="#000000" d="M 141.72321 286.41964 L 141.72321 287.41071 L 142.71429 289.39286 L 143.70536 290.38393 L 145.68750 291.37500 L 149.65179 291.37500 L 151.63393 290.38393 L 152.62500 289.39286 L 153.61607 287.41071 L 153.61607 285.42857 L 152.62500 283.44643 L 150.64286 280.47321 L 140.73214 270.56250 L 154.60714 270.56250"/>
<path stroke="#000000" d="M 161.54464 286.41964 L 161.54464 287.41071 L 162.53571 289.39286 L 163.52679 290.38393 L 165.50893 291.37500 L 169.47321 291.37500 L 171.45536 290.38393 L 172.44643 289.39286 L 173.43750 287.41071 L 173.43750 285.42857 L 172.44643 283.44643 L 170.46429 280.47321 L 160.55357 270.56250 L 174.42857 270.56250"/>
<path stroke="#000000" d="M 181.36607 286.41964 L 181.36607 287.41071 L 182.35714 289.39286 L 183.34821 290.38393 L 185.33036 291.37500 L 189.29464 291.37500 L 191.27679 290.38393 L 192.26786 289.39286 L 193.25893 287.41071 L 193.25893 285.42857 L 192.26786 283.44643 L 190.28571 280.47321 L 180.37500 270.56250 L 194.25000 270.56250"/>
</svg>