<?xml version="1.0" encoding="UTF-8"?>
<!-- Generated by jsxcad -->
<!DOCTYPE svg PUBLIC "-//W3C//DTD SVG 1.1 Tiny//EN" "http://www.w3.org/Graphics/SVG/1.1/DTD/svg11-tiny.dtd">
<svg baseProfile="tiny" height="134.00000mm" width="37.89589mm" viewBox="-0.00058 88.00000 37.89589 134.00000" version="1.1" stroke="black" stroke-width=".1" fill="none" xmlns="http://www.w3.org/2000/svg">
<path fill="#000000" stroke="#000000" d="M-0.00058 111.00000 L0.10561 111.00000 L0.42566 111.00000 L0.74208 111.00000 L0.94737 111.00000 L0.94737 119.00000 L1.18239 119.00000 L1.41650 119.00000 L1.82140 119.00000 L2.22786 119.00000 L2.69737 119.00000 L3.16688 119.00000 L3.57334 119.00000 L3.97824 119.00000 L4.21235 119.00000 L4.44737 119.00000 L4.44737 111.00000 L4.97740 111.00000 L6.01477 111.00000 L7.05449 111.00000 L7.48642 111.00000 L7.64284 111.00000 L7.90367 111.00000 L8.22619 111.00000 L8.26091 111.00000 L8.71490 111.00000 L9.26588 111.00000 L9.40588 111.00000 L9.89726 111.00000 L10.61404 111.00000 L10.69291 111.00000 L11.41021 111.00000 L11.97707 111.00000 L12.26462 111.00000 L13.18780 111.00000 L13.33929 111.00000 L14.17064 111.00000 L14.70250 111.00000 L15.18163 111.00000 L15.55550 111.00000 L16.23079 111.00000 L16.83875 111.00000 L17.31193 111.00000 L17.43239 111.00000 L17.75867 111.00000 L18.21204 111.00000 L18.39975 111.00000 L18.51290 111.00000 L18.94737 111.00000 L19.38183 111.00000 L19.49499 111.00000 L19.68270 111.00000 L20.13606 111.00000 L20.46235 111.00000 L20.58281 111.00000 L21.05599 111.00000 L21.66394 111.00000 L22.71311 111.00000 L23.19224 111.00000 L23.72409 111.00000 L24.61801 111.00000 L24.70694 111.00000 L25.63012 111.00000 L25.91767 111.00000 L26.48453 111.00000 L27.28070 111.00000 L27.29840 111.00000 L27.99747 111.00000 L28.62886 111.00000 L29.17983 111.00000 L29.63383 111.00000 L29.66855 111.00000 L29.99106 111.00000 L30.25190 111.00000 L30.40832 111.00000 L30.84025 111.00000 L31.87997 111.00000 L32.91734 111.00000 L33.44737 111.00000 L33.44737 119.00000 L33.68239 119.00000 L33.91650 119.00000 L34.32140 119.00000 L34.72786 119.00000 L35.19737 119.00000 L35.66688 119.00000 L36.07334 119.00000 L36.47824 119.00000 L36.71235 119.00000 L36.94737 119.00000 L36.94737 111.00000 L37.15266 111.00000 L37.46907 111.00000 L37.78913 111.00000 L37.89531 111.00000 L37.89531 166.50000 L37.89531 222.00000 L37.78913 222.00000 L37.46907 222.00000 L37.15266 222.00000 L36.63425 222.00000 L36.11173 222.00000 L35.39576 222.00000 L34.68538 222.00000 L33.80038 222.00000 L32.91734 222.00000 L31.87997 222.00000 L30.84025 222.00000 L29.66855 222.00000 L28.48885 222.00000 L27.20183 222.00000 L25.91767 222.00000 L24.55544 222.00000 L23.19224 222.00000 L21.78143 222.00000 L20.37237 222.00000 L18.94737 222.00000 L17.52237 222.00000 L16.11331 222.00000 L14.70250 222.00000 L13.33929 222.00000 L11.97707 222.00000 L10.69291 222.00000 L9.40588 222.00000 L8.22619 222.00000 L7.05449 222.00000 L6.01477 222.00000 L4.97740 222.00000 L4.09436 222.00000 L3.20935 222.00000 L2.49898 222.00000 L1.78300 222.00000 L1.26049 222.00000 L0.74208 222.00000 L0.42566 222.00000 L0.10561 222.00000 L-0.00058 222.00000 L-0.00058 166.50000 z"/>
<path fill="#000000" stroke="#000000" d="M0.94737 103.00000 L1.18239 103.00000 L1.41650 103.00000 L1.82140 103.00000 L2.22786 103.00000 L2.69737 103.00000 L3.16688 103.00000 L3.57334 103.00000 L3.97824 103.00000 L4.21235 103.00000 L4.44737 103.00000 L4.44737 119.00000 L4.21235 119.00000 L3.97824 119.00000 L3.57334 119.00000 L3.16688 119.00000 L2.69737 119.00000 L2.22786 119.00000 L1.82140 119.00000 L1.41650 119.00000 L1.18239 119.00000 L0.94737 119.00000 z"/>
<path fill="#000000" stroke="#000000" d="M33.44737 103.00000 L33.68239 103.00000 L33.91650 103.00000 L34.32140 103.00000 L34.72786 103.00000 L35.19737 103.00000 L35.66688 103.00000 L36.07334 103.00000 L36.47824 103.00000 L36.71235 103.00000 L36.94737 103.00000 L36.94737 119.00000 L36.71235 119.00000 L36.47824 119.00000 L36.07334 119.00000 L35.66688 119.00000 L35.19737 119.00000 L34.72786 119.00000 L34.32140 119.00000 L33.91650 119.00000 L33.68239 119.00000 L33.44737 119.00000 z"/>
<path fill="#000000" stroke="#000000" d="M14.98882 88.00000 L15.15133 88.00000 L15.41601 88.00000 L15.77903 88.00000 L16.22798 88.00000 L16.74917 88.00000 L17.33400 88.00000 L17.96107 88.00000 L18.61404 88.00000 L19.28070 88.00000 L19.93367 88.00000 L20.56073 88.00000 L21.14557 88.00000 L21.66676 88.00000 L22.11571 88.00000 L22.47873 88.00000 L22.74340 88.00000 L22.90592 88.00000 L22.90592 103.69560 L22.90592 109.00000 L22.74340 109.00000 L22.71311 109.00000 L22.20546 109.00000 L21.66676 109.00000 L21.66394 109.00000 L20.60813 109.00000 L20.58281 109.00000 L19.93367 109.00000 L19.49499 109.00000 L19.28540 109.00000 L18.61404 109.00000 L18.39975 109.00000 L17.31193 109.00000 L17.28661 109.00000 L16.23079 109.00000 L16.22798 109.00000 L15.18163 109.00000 L15.10691 109.00000 L15.04525 109.00000 L14.98882 109.00000 L14.98882 103.69560 z"/>
<path fill="#000000" stroke="#000000" d="M7.48642 109.00000 L7.64284 109.00000 L7.90367 109.00000 L8.26091 109.00000 L8.71490 109.00000 L9.26588 109.00000 L9.89726 109.00000 L10.61404 109.00000 L11.41021 109.00000 L12.26462 109.00000 L13.18780 109.00000 L14.17064 109.00000 L15.18163 109.00000 L16.23079 109.00000 L17.31193 109.00000 L18.39975 109.00000 L19.49499 109.00000 L20.58281 109.00000 L21.66394 109.00000 L22.71311 109.00000 L23.72409 109.00000 L24.70694 109.00000 L25.63012 109.00000 L26.48453 109.00000 L27.28070 109.00000 L27.99747 109.00000 L28.62886 109.00000 L29.17983 109.00000 L29.63383 109.00000 L29.99106 109.00000 L30.25190 109.00000 L30.40832 109.00000 L30.40832 110.49830 L30.40832 111.00000 L30.25190 111.00000 L29.99106 111.00000 L29.63383 111.00000 L29.17983 111.00000 L28.62886 111.00000 L27.99747 111.00000 L27.28070 111.00000 L26.48453 111.00000 L25.63012 111.00000 L24.70694 111.00000 L23.72409 111.00000 L22.71311 111.00000 L21.66394 111.00000 L20.58281 111.00000 L19.49499 111.00000 L18.39975 111.00000 L17.31193 111.00000 L16.23079 111.00000 L15.18163 111.00000 L14.17064 111.00000 L13.18780 111.00000 L12.26462 111.00000 L11.41021 111.00000 L10.61404 111.00000 L9.89726 111.00000 L9.26588 111.00000 L8.71490 111.00000 L8.26091 111.00000 L7.90367 111.00000 L7.64284 111.00000 L7.48642 111.00000 L7.48642 109.50170 z"/>
</svg>